<svg xmlns="http://www.w3.org/2000/svg" viewBox="0 0 540 540" role="img" aria-labelledby="title">
  <title id="title">Ulucan amblemi</title>
  <g fill="#1D211F">
    <path d="M36 194a13 13 0 0 1 13-13h56a13 13 0 0 1 13 13v224h328V34a13 13 0 0 1 13-13h56a13 13 0 0 1 13 13v449a13 13 0 0 1-13 13H49a13 13 0 0 1-13-13V194Z"/>
    <path d="M136 149a13 13 0 0 1 13-13h56a13 13 0 0 1 13 13v168h174V93a13 13 0 0 1 13-13h56a13 13 0 0 1 13 13v289a13 13 0 0 1-13 13H149a13 13 0 0 1-13-13V149Z"/>
    <path d="M236 104a13 13 0 0 1 13-13h56a13 13 0 0 1 13 13v113h74V93a13 13 0 0 1 13-13h56a13 13 0 0 1 13 13v202a13 13 0 0 1-13 13H249a13 13 0 0 1-13-13V104Z"/>
  </g>
</svg>
